<svg xmlns="http://www.w3.org/2000/svg" width="56" height="33.965" viewBox="0 0 56 33.965"><defs><style>.a{fill:none;}.b{fill:#9d3cfa;}.c{fill:#3c303e;stroke:#3c303e;stroke-miterlimit:10;stroke-width:0.5px;}</style></defs><rect class="a" width="55.923" height="33.526" transform="translate(0.077 0)"/><circle class="b" cx="1.406" cy="1.406" r="1.406" transform="translate(26.699 15.472)"/><g transform="translate(0 0.197)"><path class="b" d="M250.223,275.9a10.977,10.977,0,0,1-4.572-.814,12.448,12.448,0,0,1-3.706-2.581,1.845,1.845,0,0,1-.294-.381.94.94,0,0,1-.121-.485,1.084,1.084,0,0,1,.329-.762,1.006,1.006,0,0,1,.745-.346,1.061,1.061,0,0,1,.762.346,9.33,9.33,0,0,0,3.066,2.217,8.976,8.976,0,0,0,3.689.762,7.923,7.923,0,0,0,2.962-.52,4.837,4.837,0,0,0,2.061-1.489,3.541,3.541,0,0,0,.762-2.251,3.89,3.89,0,0,0-.883-2.563,6.718,6.718,0,0,0-2.269-1.628,21,21,0,0,0-3.152-1.143q-1.421-.45-2.719-.987a9.548,9.548,0,0,1-2.286-1.316,5.438,5.438,0,0,1-1.541-1.922,6.217,6.217,0,0,1-.554-2.737,5.716,5.716,0,0,1,.97-3.273,6.456,6.456,0,0,1,2.754-2.251,9.883,9.883,0,0,1,4.139-.814,11.328,11.328,0,0,1,3.931.693,6.812,6.812,0,0,1,3,2.044,1.567,1.567,0,0,1,.52,1,.972.972,0,0,1-.346.71,1.083,1.083,0,0,1-.762.329.8.8,0,0,1-.589-.242,6.1,6.1,0,0,0-1.489-1.3,7.583,7.583,0,0,0-1.992-.883,8.219,8.219,0,0,0-2.269-.312,8.069,8.069,0,0,0-2.927.5,4.714,4.714,0,0,0-2.044,1.437,3.553,3.553,0,0,0-.745,2.286,3.4,3.4,0,0,0,.831,2.373,6.455,6.455,0,0,0,2.182,1.524q1.351.606,2.875,1.126a29.738,29.738,0,0,1,2.858.953,10.2,10.2,0,0,1,2.425,1.334,5.642,5.642,0,0,1,1.663,2.009,6.8,6.8,0,0,1,.606,3.048,5.389,5.389,0,0,1-1,3.187,6.936,6.936,0,0,1-2.754,2.251A9.819,9.819,0,0,1,250.223,275.9Z" transform="translate(-241.529 -250.956)"/><path class="b" d="M429.455,256.177l-8.417,20.887a1.136,1.136,0,0,1-.381.519.927.927,0,0,1-.554.173,1,1,0,0,1-.762-.26.9.9,0,0,1-.242-.641.887.887,0,0,1,.035-.416l9.144-22.376a.987.987,0,0,1,.4-.537,1.155,1.155,0,0,1,.606-.156,1.057,1.057,0,0,1,.641.191,1.23,1.23,0,0,1,.4.5l9.11,22.272a1.311,1.311,0,0,1,.069.416.915.915,0,0,1-.312.745,1.1,1.1,0,0,1-.727.26,1,1,0,0,1-.606-.19,1.222,1.222,0,0,1-.4-.5L428.832,256Z" transform="translate(-401.26 -253.128)"/><path class="b" d="M613.786,256.38a1.059,1.059,0,0,1-.727-.277.888.888,0,0,1-.312-.693.927.927,0,0,1,.312-.727,1.062,1.062,0,0,1,.727-.277h16.453a1.108,1.108,0,0,1,.762.277.928.928,0,0,1,.312.727.875.875,0,0,1-.312.71,1.152,1.152,0,0,1-.762.26Zm8.244,22.272a1.079,1.079,0,0,1-.8-.312,1,1,0,0,1-.312-.727V255.549H623.1v22.065a1,1,0,0,1-.312.727A1.037,1.037,0,0,1,622.03,278.653Z" transform="translate(-575.477 -254.06)"/></g><g transform="translate(7.611 29.954)"><path class="c" d="M320.023,547.687a.144.144,0,0,1,.067.1.152.152,0,0,1-.034.118.106.106,0,0,1-.084.051.223.223,0,0,1-.1-.022,1.513,1.513,0,0,0-.39-.188,1.468,1.468,0,0,0-.448-.067,1.4,1.4,0,0,0-.546.106,1.322,1.322,0,0,0-.44.3,1.352,1.352,0,0,0-.291.457,1.707,1.707,0,0,0,0,1.177,1.354,1.354,0,0,0,.3.46,1.294,1.294,0,0,0,.44.294,1.428,1.428,0,0,0,.539.1,1.445,1.445,0,0,0,.445-.067,1.722,1.722,0,0,0,.392-.183.151.151,0,0,1,.1-.022.14.14,0,0,1,.091.055.151.151,0,0,1,.029.116.119.119,0,0,1-.063.091,1.933,1.933,0,0,1-.284.147,1.849,1.849,0,0,1-.347.108,1.767,1.767,0,0,1-.366.039,1.705,1.705,0,0,1-.652-.125,1.654,1.654,0,0,1-.908-.9,1.8,1.8,0,0,1-.135-.708,1.749,1.749,0,0,1,.132-.688,1.721,1.721,0,0,1,.364-.546,1.655,1.655,0,0,1,.539-.364,1.678,1.678,0,0,1,.66-.13,1.823,1.823,0,0,1,.53.077A1.7,1.7,0,0,1,320.023,547.687Z" transform="translate(-317.337 -547.388)"/><path class="c" d="M381.609,549.077a1.972,1.972,0,0,1-.118.7,1.643,1.643,0,0,1-.335.549,1.5,1.5,0,0,1-.513.361,1.714,1.714,0,0,1-1.3,0,1.508,1.508,0,0,1-.51-.361,1.673,1.673,0,0,1-.337-.549,2.07,2.07,0,0,1,0-1.391,1.675,1.675,0,0,1,.337-.549,1.51,1.51,0,0,1,.51-.361,1.713,1.713,0,0,1,1.3,0,1.5,1.5,0,0,1,.513.361,1.645,1.645,0,0,1,.335.549A1.972,1.972,0,0,1,381.609,549.077Zm-.308,0a1.614,1.614,0,0,0-.168-.753,1.284,1.284,0,0,0-.46-.508,1.246,1.246,0,0,0-.676-.183,1.236,1.236,0,0,0-1.139.691,1.792,1.792,0,0,0,0,1.507,1.3,1.3,0,0,0,1.815.508,1.284,1.284,0,0,0,.46-.508A1.615,1.615,0,0,0,381.3,549.077Z" transform="translate(-372.25 -547.344)"/><path class="c" d="M447.236,547.813a.167.167,0,0,1,.07.017.174.174,0,0,1,.06.046l1.329,1.993-.13,0,1.333-1.988a.154.154,0,0,1,.229-.022.141.141,0,0,1,.041.1v3.081a.135.135,0,0,1-.046.1.152.152,0,0,1-.108.043.144.144,0,0,1-.106-.043.138.138,0,0,1-.043-.1v-2.787l.087.01-1.218,1.844a.1.1,0,0,1-.046.046.134.134,0,0,1-.13,0,.137.137,0,0,1-.051-.046l-1.223-1.863.091-.063v2.86a.143.143,0,0,1-.041.1.136.136,0,0,1-.1.043.128.128,0,0,1-.1-.043.147.147,0,0,1-.039-.1v-3.081a.146.146,0,0,1,.041-.1A.133.133,0,0,1,447.236,547.813Z" transform="translate(-434.065 -547.765)"/><path class="c" d="M517.715,547.823a.916.916,0,0,1,.477.123.886.886,0,0,1,.327.339,1.014,1.014,0,0,1,.12.5,1.035,1.035,0,0,1-.12.5.928.928,0,0,1-.327.354.877.877,0,0,1-.477.13h-1.021l.024-.043v1.324a.148.148,0,0,1-.144.144.134.134,0,0,1-.106-.043.147.147,0,0,1-.038-.1v-3.081a.142.142,0,0,1,.041-.1.136.136,0,0,1,.1-.043Zm0,1.666a.571.571,0,0,0,.328-.094.642.642,0,0,0,.219-.255.79.79,0,0,0,.079-.354.753.753,0,0,0-.079-.354.59.59,0,0,0-.547-.325h-1.021l.024-.038v1.449l-.029-.029Z" transform="translate(-496.441 -547.775)"/><path class="c" d="M571.129,548.07l-1.17,2.9a.159.159,0,0,1-.053.072.129.129,0,0,1-.077.024.139.139,0,0,1-.106-.036.125.125,0,0,1-.034-.089.122.122,0,0,1,0-.058l1.271-3.11a.137.137,0,0,1,.055-.075.159.159,0,0,1,.084-.022.147.147,0,0,1,.089.026.17.17,0,0,1,.055.07l1.266,3.1a.183.183,0,0,1,.01.058.127.127,0,0,1-.043.1.154.154,0,0,1-.1.036.139.139,0,0,1-.084-.027.17.17,0,0,1-.055-.07l-1.2-2.927Zm-.891,2.022.12-.284h1.492l.058.284Z" transform="translate(-544.352 -547.646)"/><path class="c" d="M635.992,547.823a.13.13,0,0,1,.1.039.136.136,0,0,1,.036.1v3.081a.144.144,0,0,1-.046.113.151.151,0,0,1-.1.041.179.179,0,0,1-.065-.012.116.116,0,0,1-.051-.036l-2.147-2.889.082-.048v2.855a.125.125,0,0,1-.038.091.131.131,0,0,1-.1.039.128.128,0,0,1-.135-.13v-3.1a.136.136,0,0,1,.14-.145.19.19,0,0,1,.063.012.1.1,0,0,1,.053.041l2.123,2.86-.048.087v-2.865a.132.132,0,0,1,.135-.135Z" transform="translate(-601.781 -547.775)"/><path class="c" d="M696.937,547.632a.13.13,0,0,1,.1.048.15.15,0,0,1,.041.1.166.166,0,0,1-.007.048.14.14,0,0,1-.022.043l-1.131,1.555.058-.188v1.642a.138.138,0,0,1-.043.1.151.151,0,0,1-.212,0,.138.138,0,0,1-.043-.1v-1.608l.029.115-1.1-1.507a.175.175,0,0,1-.029-.05.147.147,0,0,1-.01-.051.128.128,0,0,1,.051-.1.164.164,0,0,1,.1-.041.143.143,0,0,1,.12.068l1.035,1.41-.072-.01,1.006-1.4A.145.145,0,0,1,696.937,547.632Z" transform="translate(-656.694 -547.603)"/></g></svg>